<!-- Generated by tool/generate_app_icons.sh from assets/logo_mark.svg -->
<svg xmlns="http://www.w3.org/2000/svg" viewBox="0 0 512 512" width="512" height="512">
  <defs>
    <linearGradient id="bg" x1="0" y1="0" x2="1" y2="1">
      <stop offset="0" stop-color="#503281"/>
      <stop offset="1" stop-color="#39245C"/>
    </linearGradient>
  </defs>
  <rect width="512" height="512" fill="url(#bg)"/>
  <svg x="97.28" y="97.28" width="317.44" height="317.44" viewBox="17 16.35 70.4 70.4">
    <path fill="#FFFFFF" d="M51.87 0C23.71 0 0 22.83 0 51v52.81l51.86-.05c28.16 0 51-23.71 51-51.87C102.86 23.73 80 0 51.87 0Z"/>
    <path fill="#FFF9AE" d="M52.37 19.74a31.62 31.62 0 0 0-27.79 46.67l-5.72 18.4 20.54-4.64a31.61 31.61 0 1 0 13-60.43h-.03Z"/>
    <path fill="#00AEEF" d="M77.087 70.914C68.11 82.24 52.59 86.03 39.4 80.12l-20.54 4.7 20.91-2.47c13.862 8.12 31.61 4.547 41.25-8.304 9.64-12.851 8.105-30.89-3.57-41.926 8.765 11.492 8.616 27.467-.363 38.794Z"/>
    <path fill="#00A94F" d="M75.32 64.909C67.571 77.11 52.533 82.5 38.8 78l-19.94 6.82 20.54-4.65c14.629 6.608 31.887 1.199 40.127-12.576 8.24-13.776 4.844-31.54-7.897-41.304 9.917 10.514 11.436 26.417 3.69 38.619Z"/>
    <path fill="#F15D22" d="M26.47 67.11c-5.725-13.8-1.007-29.722 11.31-38.176 12.319-8.453 28.873-7.129 39.69 3.176-10.018-13.147-28.474-16.356-42.342-7.363C21.26 33.742 16.663 51.901 24.58 66.41l-5.72 18.4 7.61-17.7Z"/>
    <path fill="#D0232B" d="M24.58 66.41c-7.103-13.12-4.065-29.421 7.288-39.102 11.353-9.68 27.929-10.105 39.762-1.018-11.351-11.952-29.982-13.176-42.798-2.81-12.817 10.366-15.517 28.84-6.202 42.44l-3.76 18.9 5.71-18.41Z"/>
  </svg>
</svg>
